<?xml version="1.0" encoding="UTF-8"?>
<svg width="300" height="200" viewBox="0 0 300 200" fill="none" xmlns="http://www.w3.org/2000/svg">
  <!-- Background -->
  <rect width="300" height="200" fill="#F7FBFD"/>
  
  <!-- Phone outline -->
  <rect x="80" y="20" width="140" height="180" rx="10" fill="#FFFFFF" stroke="#CCCCCC" stroke-width="2"/>
  <rect x="105" y="35" width="90" height="15" rx="5" fill="#EEEEEE"/>
  
  <!-- Plant cards -->
  <rect x="95" y="60" width="110" height="60" rx="6" fill="#EAFBEA" stroke="#A0D5A7" stroke-width="1"/>
  <circle cx="115" cy="90" r="15" fill="#2E8540"/>
  <path d="M130 75H195" stroke="#A0D5A7" stroke-width="2"/>
  <path d="M130 85H180" stroke="#A0D5A7" stroke-width="2"/>
  <path d="M130 95H160" stroke="#A0D5A7" stroke-width="2"/>
  
  <rect x="95" y="130" width="110" height="60" rx="6" fill="#EAFAFF" stroke="#5C9EAD" stroke-width="1"/>
  <circle cx="115" cy="160" r="15" fill="#5C9EAD"/>
  <path d="M130 145H195" stroke="#5C9EAD" stroke-width="2"/>
  <path d="M130 155H180" stroke="#5C9EAD" stroke-width="2"/>
  <path d="M130 165H160" stroke="#5C9EAD" stroke-width="2"/>
  
  <!-- Water drops -->
  <path d="M215 75C215 80 220 85 215 90C210 85 215 80 215 75Z" fill="#7FCDFF"/>
  <path d="M225 95C225 98 228 101 225 104C222 101 225 98 225 95Z" fill="#7FCDFF"/>
  <path d="M210 110C210 115 215 120 210 125C205 120 210 115 210 110Z" fill="#7FCDFF"/>
  
  <!-- Reminders -->
  <circle cx="205" cy="160" r="18" fill="#FF8C68" fill-opacity="0.2"/>
  <path d="M205 150V160H215" stroke="#FF8C68" stroke-width="2" stroke-linecap="round"/>
</svg>